<svg width="46" height="46" viewBox="0 0 46 46" fill="none" xmlns="http://www.w3.org/2000/svg">
<path opacity="0.3" d="M23 45.75C16.4819 45.75 13.2229 45.75 10.6132 44.8002C6.23836 43.2079 2.79215 39.7616 1.19984 35.3868C0.25 32.7771 0.25 29.5181 0.25 23C0.25 16.4819 0.25 13.2229 1.19984 10.6132C2.79215 6.23836 6.23836 2.79215 10.6132 1.19984C13.2229 0.25 16.4819 0.25 23 0.25C29.5181 0.25 32.7771 0.25 35.3868 1.19984C39.7616 2.79215 43.2079 6.23836 44.8002 10.6132C45.75 13.2229 45.75 16.4819 45.75 23C45.75 29.5181 45.75 32.7771 44.8002 35.3868C43.2079 39.7616 39.7616 43.2079 35.3868 44.8002C32.7771 45.75 29.5181 45.75 23 45.75Z" fill="#DFDFDF"/>
<path fill-rule="evenodd" clip-rule="evenodd" d="M23 5.5C15.3783 5.5 8.89787 10.3716 6.49613 17.1668C5.85064 18.9931 5.5 20.957 5.5 23C5.5 32.665 13.335 40.5 23 40.5C32.665 40.5 40.5 32.665 40.5 23C40.5 20.957 40.1494 18.9931 39.5039 17.1668C37.1021 10.3716 30.6217 5.5 23 5.5ZM9.80651 16.2692H15.7824C16.3149 14.1811 17.0315 12.3496 17.7446 10.8416C18.107 10.0752 18.4697 9.3898 18.8091 8.79374C14.8852 9.94946 11.6379 12.6867 9.80651 16.2692ZM22.3619 8.20581C22.2449 8.37107 22.1019 8.57919 21.9396 8.82774C21.4628 9.55792 20.8213 10.6332 20.1785 11.9925C19.602 13.2116 19.0282 14.6512 18.5702 16.2692H27.4298C26.9718 14.6512 26.398 13.2116 25.8215 11.9925C25.1787 10.6332 24.5372 9.55792 24.0604 8.82774C23.8981 8.57919 23.7551 8.37107 23.6381 8.20581C23.4265 8.19684 23.2138 8.19231 23 8.19231C22.7862 8.19231 22.5735 8.19684 22.3619 8.20581ZM27.1909 8.79374C27.5303 9.3898 27.893 10.0752 28.2554 10.8416C28.9685 12.3496 29.6851 14.1811 30.2176 16.2692H36.1935C34.3621 12.6867 31.1148 9.94946 27.1909 8.79374ZM37.2507 18.9615H30.7669C30.9627 20.24 31.0769 21.5901 31.0769 23C31.0769 24.4088 30.9628 25.759 30.7673 27.0385H37.2503C37.6134 25.7547 37.8077 24.4 37.8077 23C37.8077 21.5984 37.6133 20.244 37.2507 18.9615ZM36.1931 29.7308H30.2198C29.6872 31.8268 28.97 33.6676 28.2565 35.1838C27.9029 35.9352 27.5489 36.6095 27.2167 37.1987C31.1296 36.0384 34.3661 33.3047 36.1931 29.7308ZM23.6751 37.7926C23.7844 37.6359 23.9136 37.4452 24.0581 37.2224C24.5353 36.4867 25.1773 35.4041 25.8204 34.0374C26.3986 32.8087 26.974 31.3586 27.4327 29.7308H18.5702C19.0282 31.3488 19.602 32.7884 20.1785 34.0075C20.8213 35.3668 21.4628 36.4421 21.9396 37.1723C22.1019 37.4208 22.2449 37.6289 22.3619 37.7942C22.5735 37.8032 22.7862 37.8077 23 37.8077C23.2263 37.8077 23.4514 37.8026 23.6751 37.7926ZM18.8091 37.2063C18.4697 36.6102 18.107 35.9248 17.7446 35.1584C17.0315 33.6504 16.3149 31.8189 15.7824 29.7308H9.80691C11.6379 33.3126 14.8847 36.0504 18.8091 37.2063ZM8.7497 27.0385H15.2331C15.0373 25.76 14.9231 24.4099 14.9231 23C14.9231 21.5901 15.0373 20.24 15.2331 18.9615H8.74934C8.38668 20.244 8.19231 21.5984 8.19231 23C8.19231 24.4 8.3866 25.7547 8.7497 27.0385ZM17.9603 18.9615C17.7438 20.234 17.6154 21.5852 17.6154 23C17.6154 24.4148 17.7438 25.766 17.9603 27.0385H28.0403C28.2564 25.7647 28.3846 24.4134 28.3846 23C28.3846 21.5852 28.2562 20.234 28.0397 18.9615H17.9603Z" fill="#DFDFDF"/>
</svg>
