<svg width="50" height="42" viewBox="0 0 50 42" fill="none" xmlns="http://www.w3.org/2000/svg">
<path opacity="0.3" fill-rule="evenodd" clip-rule="evenodd" d="M42.8114 1.33517C41.4005 0.616304 39.848 0.300762 37.9889 0.148866C36.1666 -2.10702e-05 33.9022 -1.1476e-05 31.0277 2.06473e-07L20.7529 6.23706e-07C17.8494 -3.75724e-06 15.16 -7.7188e-06 12.9145 0.146782C10.7178 0.290377 8.66078 0.585066 7.18862 1.33517C4.88363 2.50962 3.00962 4.38363 1.83517 6.68862C1.1163 8.09947 0.800762 9.652 0.648866 11.5111C0.499979 13.3334 0.499989 15.5978 0.5 18.4723V23.5277C0.499989 26.4022 0.499979 28.6666 0.648866 30.4889C0.800762 32.348 1.1163 33.9005 1.83517 35.3114C3.00962 37.6164 4.88363 39.4904 7.18862 40.6648C8.66078 41.4149 10.7178 41.7096 12.9145 41.8532C15.16 42 17.8495 42 20.7529 42H31.0278C33.9022 42 36.1666 42 37.9889 41.8511C39.848 41.6992 41.4005 41.3837 42.8114 40.6648C45.1164 39.4904 46.9904 37.6164 48.1648 35.3114C48.8837 33.9005 49.1992 32.348 49.3511 30.4889C49.5 28.6666 49.5 26.4022 49.5 23.5278V18.4722C49.5 15.5978 49.5 13.3334 49.3511 11.5111C49.1992 9.652 48.8837 8.09947 48.1648 6.68862C46.9904 4.38363 45.1164 2.50962 42.8114 1.33517Z" fill="#BEBEBE"/>
<path d="M12.8457 9.04385C12.0415 8.50774 10.955 8.72504 10.4189 9.52922C9.88277 10.3334 10.1001 11.4199 10.9042 11.956L18.2825 16.8749C19.628 17.7719 20.7534 18.5223 21.7428 19.0369C22.789 19.5812 23.8236 19.9402 25 19.9402C26.1764 19.9402 27.2109 19.5812 28.2572 19.0369C29.2465 18.5223 30.3719 17.7719 31.7174 16.8749L39.0957 11.956C39.8999 11.4199 40.1172 10.3334 39.5811 9.52922C39.0449 8.72504 37.9584 8.50774 37.1542 9.04385L29.8536 13.911C28.4103 14.8731 27.4426 15.5154 26.6419 15.9319C25.8792 16.3287 25.4132 16.4402 25 16.4402C24.5868 16.4402 24.1208 16.3287 23.358 15.9319C22.5573 15.5154 21.5896 14.8731 20.1463 13.911L12.8457 9.04385Z" fill="#BEBEBE"/>
</svg>
