<svg width="46" height="46" viewBox="0 0 46 46" fill="none" xmlns="http://www.w3.org/2000/svg">
<path opacity="0.3" d="M23 0.25C10.4355 0.25 0.25 10.4355 0.25 23C0.25 35.5645 10.4355 45.75 23 45.75C35.5645 45.75 45.75 35.5645 45.75 23C45.75 10.4355 35.5645 0.25 23 0.25Z" fill="#DFDFDF"/>
<path d="M31.2375 14.7626C31.6845 15.2097 31.8557 15.8631 31.6852 16.4719L28.6227 27.4094C28.4579 27.998 27.998 28.4579 27.4094 28.6227L16.4719 31.6852C15.8631 31.8557 15.2097 31.6845 14.7626 31.2375C14.3156 30.7904 14.1444 30.137 14.3149 29.5282L17.3773 18.5907C17.5421 18.0021 18.0021 17.5422 18.5907 17.3774L29.5282 14.3149C30.137 14.1444 30.7904 14.3156 31.2375 14.7626Z" fill="#DFDFDF"/>
</svg>
