<svg width="40" height="50" viewBox="0 0 40 50" fill="none" xmlns="http://www.w3.org/2000/svg">
<path opacity="0.3" fill-rule="evenodd" clip-rule="evenodd" d="M6.35186 16.5695C6.21608 15.6575 6.1638 13.4769 6.51881 11.2409C6.71129 10.0285 7.03628 8.71017 7.58417 7.51027C8.13012 6.31461 8.94616 5.13182 10.1744 4.35083C10.1946 4.33798 10.2151 4.32556 10.2358 4.31357L10.2919 4.28114C10.8528 3.95664 11.2572 3.72271 11.6434 3.55738C14.3963 2.3788 17.629 3.13741 19.4633 5.54259C19.713 5.87004 19.9415 6.26656 20.2361 6.77765L20.8901 7.9101C21.4781 8.92914 21.9467 9.74112 22.215 10.4715C22.4271 11.0488 22.4565 11.6049 22.4586 11.9905C22.4635 12.8624 22.2044 13.6934 21.9148 14.3881C21.6197 15.096 21.233 15.7994 20.8716 16.4301C20.7535 16.6362 20.6397 16.8321 20.5299 17.0209C20.2847 17.4428 20.0598 17.8297 19.8529 18.2185C19.5544 18.7795 19.3766 19.1957 19.2999 19.5002C19.1903 19.9351 18.8824 20.3089 18.4564 20.4207C17.0513 20.7895 15.6713 21.3573 14.3534 22.1341C13.3324 22.7359 12.3993 23.4333 11.5586 24.2088C10.638 25.058 9.11027 24.9042 8.59029 23.7542C7.86191 22.1433 7.37004 20.8171 7.03777 19.7553C6.71072 18.7102 6.53779 17.9196 6.44655 17.3647C6.40092 17.0873 6.37573 16.8688 6.36191 16.707C6.3575 16.6554 6.35425 16.6096 6.35186 16.5695Z" fill="#DFDFDF"/>
<path d="M17.6776 38.2207C16.0917 36.4067 13.9136 33.5393 11.4376 29.2468C11.3562 29.1057 11.2762 28.9659 11.1974 28.8274C10.8624 28.2384 10.8971 27.4982 11.3259 26.9764C12.3916 25.6799 13.6933 24.548 15.2122 23.6527C16.1002 23.1293 17.0198 22.7119 17.9567 22.3968C18.7967 22.1142 19.657 22.6433 20.0396 23.4572C20.1919 23.7813 20.3708 24.1272 20.5808 24.4913C21.6394 26.3265 22.7863 27.4022 23.2237 27.774C23.2724 27.8154 23.3531 27.8713 23.499 27.9494C23.6368 28.0232 23.7769 28.0871 23.9188 28.1411C24.1828 28.2415 24.6019 28.3168 25.2252 28.3492C25.7875 28.3785 26.3995 28.3694 27.0843 28.3592L27.2731 28.3564C28.003 28.3458 28.8151 28.338 29.5804 28.401C30.3327 28.463 31.1811 28.6023 31.9436 28.966C32.4932 29.2282 33.2189 29.6485 33.7622 30.382C34.1702 30.9328 34.5904 31.6613 35.1125 32.5666L35.7237 33.6264C36.0235 34.1457 36.2542 34.5455 36.4144 34.93C37.5888 37.7477 36.6168 40.9713 34.2044 42.7832C33.8722 43.0327 33.4712 43.2646 32.9261 43.5797L32.8448 43.6267C32.8241 43.6387 32.8031 43.6502 32.782 43.6613C30.3777 44.9202 27.6793 44.5139 25.5467 43.7617C23.3874 43.0001 21.4658 41.7681 20.3163 40.8379L20.2746 40.8053C20.2351 40.7741 20.1821 40.7314 20.1164 40.6765C19.9848 40.5669 19.8022 40.4086 19.573 40.1959C19.1145 39.7704 18.4704 39.1275 17.6776 38.2207Z" fill="#DFDFDF"/>
</svg>
