<svg width="76" height="19" viewBox="0 0 76 19" fill="none" xmlns="http://www.w3.org/2000/svg">
<path d="M13.925 18H11.8L8.1 10.95H8.075H2.775V18H0.95V0.65H8.075C9.69167 0.65 11 1.125 12 2.075C13 3.00833 13.5 4.25 13.5 5.8C13.5 7.01667 13.1833 8.05 12.55 8.9C11.9333 9.75 11.0833 10.3417 10 10.675L13.925 18ZM2.775 2.375V9.225H8.075C9.125 9.225 9.96667 8.91667 10.6 8.3C11.25 7.66667 11.575 6.83333 11.575 5.8C11.575 4.78333 11.25 3.95833 10.6 3.325C9.95 2.69167 9.10833 2.375 8.075 2.375H2.775Z" fill="black"/>
<path d="M28.89 10.325L28.69 11.175C28.44 12.325 28.1317 13.3167 27.765 14.15L31.44 18H29.09L26.915 15.725C25.765 17.4083 24.1317 18.25 22.015 18.25C20.4817 18.25 19.2484 17.8583 18.315 17.075C17.3984 16.275 16.94 15.2083 16.94 13.875C16.94 12.125 17.79 10.7583 19.49 9.775L20.615 9.15L20.14 8.65C18.9234 7.35 18.315 6.075 18.315 4.825C18.315 3.49167 18.74 2.425 19.59 1.625C20.4567 0.808332 21.59 0.399999 22.99 0.399999C24.3067 0.399999 25.365 0.774999 26.165 1.525C26.965 2.275 27.365 3.26667 27.365 4.5C27.365 6.16667 26.5567 7.45 24.94 8.35L23.19 9.35L26.54 12.875C26.8234 12.1417 27.0817 11.2417 27.315 10.175C27.6817 8.49167 28.5817 7.65 30.015 7.65H31.565V9.25H30.04C29.4234 9.25 29.04 9.60833 28.89 10.325ZM21.265 7.35L22.14 8.275L24.065 7.175C25.165 6.525 25.715 5.65833 25.715 4.575C25.715 3.79167 25.465 3.15833 24.965 2.675C24.465 2.19167 23.8067 1.95 22.99 1.95C22.1234 1.95 21.4234 2.21667 20.89 2.75C20.3734 3.26667 20.115 3.95833 20.115 4.825C20.115 5.69167 20.4984 6.53333 21.265 7.35ZM22.14 16.65C23.6734 16.65 24.8734 15.9333 25.74 14.5L21.665 10.225L20.49 10.9C19.34 11.55 18.765 12.5083 18.765 13.775C18.765 14.6417 19.065 15.3417 19.665 15.875C20.2817 16.3917 21.1067 16.65 22.14 16.65ZM39.9229 18.275C38.0395 18.275 36.4812 17.7667 35.2479 16.75C34.0312 15.7167 33.3645 14.3667 33.2479 12.7L34.9729 12.425C35.0229 13.6917 35.5145 14.7083 36.4479 15.475C37.3812 16.225 38.5895 16.6 40.0729 16.6C41.3895 16.6 42.4479 16.3 43.2479 15.7C44.0479 15.1 44.4479 14.3167 44.4479 13.35C44.4479 12.6667 44.1979 12.0833 43.6979 11.6C43.1979 11.1167 42.4812 10.775 41.5479 10.575L37.5729 9.675C36.3229 9.40833 35.3562 8.875 34.6729 8.075C34.0062 7.275 33.6729 6.28333 33.6729 5.1C33.6729 3.68333 34.2395 2.55 35.3729 1.7C36.5229 0.833332 38.0312 0.399999 39.8979 0.399999C41.4312 0.399999 42.7562 0.808332 43.8729 1.625C45.0062 2.425 45.7229 3.48333 46.0229 4.8L44.3229 5.35C44.1062 4.36667 43.5812 3.575 42.7479 2.975C41.9145 2.35833 40.9145 2.05 39.7479 2.05C38.4979 2.05 37.4895 2.33333 36.7229 2.9C35.9729 3.45 35.5979 4.18333 35.5979 5.1C35.5979 6.56667 36.4812 7.50833 38.2479 7.925L42.1979 8.85C43.5479 9.16667 44.5812 9.71667 45.2979 10.5C46.0145 11.2667 46.3729 12.2167 46.3729 13.35C46.3729 14.8167 45.7812 16.0083 44.5979 16.925C43.4145 17.825 41.8562 18.275 39.9229 18.275ZM51.6834 18V6.202H52.9244V18H51.6834ZM59.3592 9.602C60.2999 9.602 61.0535 9.90233 61.6202 10.503C62.1982 11.0923 62.4872 11.8743 62.4872 12.849V18H61.3482V13.24C61.3482 12.458 61.1385 11.829 60.7192 11.353C60.3112 10.877 59.7842 10.639 59.1382 10.639C58.3789 10.639 57.7669 10.9167 57.3022 11.472C56.8489 12.016 56.6222 12.7357 56.6222 13.631V18H55.4832V9.772H56.4182L56.6222 11.285H56.6392C56.8319 10.775 57.1719 10.367 57.6592 10.061C58.1579 9.755 58.7245 9.602 59.3592 9.602ZM68.6375 18.187C67.3908 18.187 66.3821 17.7903 65.6115 16.997C64.8521 16.2037 64.4725 15.1667 64.4725 13.886C64.4725 12.6053 64.8521 11.574 65.6115 10.792C66.3821 9.99867 67.3908 9.602 68.6375 9.602C69.4988 9.602 70.2695 9.83433 70.9495 10.299C71.6295 10.7523 72.0998 11.353 72.3605 12.101L71.4085 12.509C71.2158 11.9423 70.8701 11.489 70.3715 11.149C69.8728 10.809 69.3061 10.639 68.6715 10.639C67.7648 10.639 67.0338 10.9393 66.4785 11.54C65.9345 12.1293 65.6625 12.9113 65.6625 13.886C65.6625 14.8607 65.9345 15.6483 66.4785 16.249C67.0338 16.8383 67.7648 17.133 68.6715 17.133C69.3061 17.133 69.8728 16.963 70.3715 16.623C70.8701 16.283 71.2158 15.8297 71.4085 15.263L72.3605 15.671C72.0998 16.4303 71.6295 17.0423 70.9495 17.507C70.2695 17.9603 69.4988 18.187 68.6375 18.187ZM73.954 16.334H75.62V18H73.954V16.334Z" fill="white"/>
</svg>
