<svg width="66" height="66" viewBox="0 0 66 66" fill="none" xmlns="http://www.w3.org/2000/svg">
<path opacity="0.3" fill-rule="evenodd" clip-rule="evenodd" d="M40.3415 3.34785C36.2267 -0.449282 29.7735 -0.449282 25.6587 3.34785C24.4168 4.49391 22.6767 5.04843 20.9323 4.81956C15.3612 4.08864 10.0508 7.71105 9.01457 13.2353C8.71824 14.8151 7.68296 16.2159 6.15204 17.0088C1.13239 19.6086 -0.956157 25.6378 1.5767 30.6995C2.30538 32.1557 2.30538 33.8443 1.5767 35.3005C-0.956157 40.3622 1.13239 46.3914 6.15204 48.9912C7.68296 49.7841 8.71824 51.1849 9.01457 52.7647C10.0508 58.2889 15.3612 61.9114 20.9323 61.1804C22.6767 60.9516 24.4168 61.5061 25.6587 62.6521C29.7735 66.4493 36.2267 66.4493 40.3415 62.6521C41.5834 61.5061 43.3235 60.9516 45.0679 61.1804C50.639 61.9114 55.9494 58.2889 56.9856 52.7647C57.282 51.1849 58.3172 49.7841 59.8482 48.9912C64.8678 46.3914 66.9564 40.3622 64.4235 35.3005C63.6948 33.8443 63.6948 32.1557 64.4235 30.6995C66.9564 25.6378 64.8678 19.6086 59.8482 17.0088C58.3172 16.2159 57.282 14.8151 56.9856 13.2353C55.9494 7.71105 50.639 4.08864 45.0679 4.81956C43.3235 5.04843 41.5834 4.49391 40.3415 3.34785Z" fill="black"/>
<path d="M46.258 26.4386C47.194 25.4235 47.13 23.8419 46.115 22.9059C45.0999 21.9699 43.5183 22.034 42.5823 23.049L29.1934 37.5685L23.4179 31.3053C22.4819 30.2902 20.9003 30.2262 19.8853 31.1622C18.8702 32.0982 18.8062 33.6798 19.7422 34.6948L27.3555 42.951C27.8289 43.4643 28.4952 43.7563 29.1934 43.7563C29.8916 43.7563 30.558 43.4643 31.0313 42.951L46.258 26.4386Z" fill="black"/>
</svg>
