<svg width="56" height="66" viewBox="0 0 56 66" fill="none" xmlns="http://www.w3.org/2000/svg">
<path opacity="0.3" d="M28 9.30005C12.7566 9.30005 0.5 21.9371 0.5 37.4C0.5 52.863 12.7566 65.5 28 65.5C43.2434 65.5 55.5 52.863 55.5 37.4C55.5 21.9371 43.2434 9.30005 28 9.30005Z" fill="black"/>
<path fill-rule="evenodd" clip-rule="evenodd" d="M19.6666 0.5C18.2859 0.5 17.1666 1.61929 17.1666 3C17.1666 4.38071 18.2859 5.5 19.6666 5.5H36.3332C37.7139 5.5 38.8332 4.38071 38.8332 3C38.8332 1.61929 37.7139 0.5 36.3332 0.5H19.6666Z" fill="black"/>
<path d="M30.4999 21.8103C30.4999 20.4295 29.3806 19.3103 27.9999 19.3103C26.6192 19.3103 25.4999 20.4295 25.4999 21.8103V35.5071C25.4999 37.4403 26.3575 39.2863 27.8591 40.5164L36.031 47.2108C37.0991 48.0858 38.6742 47.9293 39.5492 46.8612C40.4242 45.7931 40.2676 44.218 39.1996 43.343L31.0277 36.6486C30.7046 36.3839 30.4999 35.9668 30.4999 35.5071V21.8103Z" fill="black"/>
</svg>
