<svg width="90" height="60" viewBox="0 0 90 60" fill="none" xmlns="http://www.w3.org/2000/svg">
<path opacity="0.3" fill-rule="evenodd" clip-rule="evenodd" d="M25.5599 19C25.5599 25.2218 28.5525 30.7438 33.1771 34.2093C28.5311 35.4121 25.3305 37.5139 23.2508 40.5218C21.5638 42.9616 20.7917 45.7658 20.4195 48.6125C20.0542 51.4066 20.0543 54.4368 20.0543 57.4039V57.5C20.0543 58.8807 21.1736 60 22.5543 60H66.5985C67.9792 60 69.0985 58.8807 69.0985 57.5V57.4007C69.0986 54.4366 69.0986 51.4342 68.7327 48.6752C68.3593 45.8589 67.5838 43.0968 65.8919 40.6866C63.7872 37.6883 60.5353 35.587 55.7932 34.3444C60.5214 30.8883 63.593 25.3033 63.593 19C63.593 8.50422 55.0766 0 44.5764 0C34.0762 0 25.5599 8.50423 25.5599 19Z" fill="black"/>
<path fill-rule="evenodd" clip-rule="evenodd" d="M17.5664 16.7391C9.42013 16.7391 4.07891 23.182 4.07891 30.7174C4.07891 34.2617 4.9536 37.7262 6.99858 40.3651C7.13992 40.5475 7.28606 40.7249 7.43694 40.8971C4.49056 41.8411 2.47447 43.3752 1.28158 45.6365C0.288571 47.5188 0.0542132 49.6064 0.00876423 51.5306C-0.014309 52.5075 0.0115782 53.518 0.0404669 54.5026L0.0498224 54.8185C0.0764396 55.713 0.10269 56.5952 0.10269 57.5C0.10269 58.8807 1.22198 60 2.60269 60C3.9834 60 5.10269 58.8807 5.10269 57.5C5.10269 56.5159 5.0741 55.5575 5.04767 54.6712L5.03832 54.356C5.00924 53.3649 4.98781 52.4768 5.00737 51.6487C5.04719 49.963 5.25786 48.815 5.70395 47.9694C6.44288 46.5687 8.51065 44.8594 16.3638 44.6951C17.734 44.6664 18.8257 43.5399 18.8113 42.1695C18.797 40.7991 17.682 39.6957 16.3115 39.6957C13.7461 39.6957 12.0604 38.7343 10.9508 37.3024C9.77649 35.787 9.07891 33.5124 9.07891 30.7174C9.07891 25.5743 12.5367 21.7391 17.5664 21.7391C18.9472 21.7391 20.0664 20.6198 20.0664 19.2391C20.0664 17.8584 18.9472 16.7391 17.5664 16.7391ZM72.4334 16.7391C71.0527 16.7391 69.9334 17.8584 69.9334 19.2391C69.9334 20.6198 71.0527 21.7391 72.4334 21.7391C77.4632 21.7391 80.921 25.5743 80.921 30.7174C80.921 33.5122 80.2233 35.7869 79.0488 37.3023C77.939 38.7342 76.253 39.6957 73.6876 39.6957C72.3171 39.6957 71.2021 40.7991 71.1877 42.1695C71.1734 43.5399 72.2651 44.6664 73.6353 44.6951C81.4884 44.8594 83.5565 46.5687 84.2956 47.9696C84.7418 48.8152 84.9525 49.9631 84.9924 51.6488C85.012 52.4769 84.9906 53.365 84.9616 54.356L84.9522 54.6719C84.9258 55.5579 84.8972 56.5161 84.8972 57.5C84.8972 58.8807 86.0165 60 87.3972 60C88.7779 60 89.8972 58.8807 89.8972 57.5C89.8972 56.5954 89.9234 55.7135 89.9501 54.8192L89.9594 54.5026C89.9883 53.518 90.0141 52.5074 89.991 51.5305C89.9455 49.6062 89.711 47.5187 88.7178 45.6363C87.5249 43.3752 85.5088 41.8412 82.5624 40.8972C82.7133 40.7249 82.8595 40.5476 83.0008 40.3652C85.046 37.7263 85.921 34.2619 85.921 30.7174C85.921 23.1819 80.5797 16.7391 72.4334 16.7391Z" fill="black"/>
</svg>
